<svg width="60" height="13" viewBox="0 0 60 13" fill="none" xmlns="http://www.w3.org/2000/svg">
<g clip-path="url(#clip0_734_542)">
<path d="M39.8857 0.00500488H50.3367V1.93398H46.1909V12.082H44.1179V1.93398H39.8857V0.00500488Z" fill="black"/>
<path d="M22.698 0.00500488V1.93398H14.3208V5.03711H21.0577V6.96607H14.3208V10.1531H22.698V12.082H12.2479V1.93398H12.2471V0.00500488H22.698Z" fill="black"/>
<path d="M27.9169 0.0101318H25.2041L34.9208 12.0872H37.6415L32.7825 6.05281L37.6337 0.0193459L34.9208 0.0235382L31.4243 4.366L27.9169 0.0101318Z" fill="black"/>
<path d="M30.7006 8.63675L29.3421 6.94763L25.1963 12.0963H27.9168L30.7006 8.63675Z" fill="black"/>
<path fill-rule="evenodd" clip-rule="evenodd" d="M12.3209 12.0821L2.59113 0H0V12.077H2.07291V2.58146L9.71676 12.0821H12.3209Z" fill="black"/>
<path d="M50.8032 12.0083C50.6514 12.0083 50.5223 11.9557 50.4141 11.8505C50.306 11.7453 50.2526 11.618 50.2539 11.4671C50.2526 11.3204 50.306 11.1945 50.4141 11.0893C50.5223 10.9841 50.6514 10.9315 50.8032 10.9315C50.9493 10.9315 51.077 10.9841 51.1851 11.0893C51.2948 11.1945 51.3495 11.3204 51.351 11.4671C51.3495 11.5668 51.3242 11.6581 51.2736 11.7398C51.2217 11.8228 51.1558 11.8879 51.0728 11.935C50.9913 11.9834 50.9014 12.0083 50.8032 12.0083Z" fill="black"/>
<path d="M54.3407 6.92065H55.2593V10.4596C55.2579 10.7849 55.1875 11.0631 55.05 11.297C54.911 11.5309 54.7185 11.7094 54.4714 11.8354C54.2256 11.9599 53.9376 12.0236 53.6103 12.0236C53.3111 12.0236 53.0429 11.9696 52.8041 11.8644C52.5654 11.7592 52.3758 11.6015 52.2367 11.3939C52.0962 11.1862 52.0273 10.9274 52.0273 10.6174H52.9474C52.9488 10.7531 52.9797 10.8707 53.0387 10.9689C53.0976 11.0672 53.1791 11.1419 53.2831 11.1945C53.3883 11.2471 53.5092 11.2734 53.6454 11.2734C53.7929 11.2734 53.9193 11.243 54.0218 11.1807C54.1243 11.1198 54.203 11.0285 54.2579 10.9067C54.3112 10.7863 54.3393 10.6368 54.3407 10.4596V6.92065Z" fill="black"/>
<path d="M59.0394 8.30463C59.017 8.09011 58.9187 7.92264 58.7473 7.80362C58.5745 7.6832 58.3512 7.62369 58.0773 7.62369C57.8849 7.62369 57.7193 7.65276 57.5816 7.7095C57.4439 7.76763 57.3372 7.84513 57.2641 7.9434C57.1911 8.04167 57.1546 8.15378 57.1517 8.27973C57.1517 8.38492 57.177 8.47626 57.2262 8.55238C57.2754 8.62988 57.3413 8.69494 57.427 8.74753C57.5112 8.8015 57.6054 8.84579 57.708 8.88177C57.8119 8.91776 57.9159 8.94821 58.0197 8.97313L58.4987 9.09077C58.6911 9.13505 58.878 9.19458 59.0563 9.27069C59.2346 9.34543 59.3962 9.44093 59.538 9.5558C59.6799 9.67068 59.7923 9.80908 59.8752 9.97102C59.958 10.1329 60.0002 10.3226 60.0002 10.5412C60.0002 10.836 59.9243 11.0948 59.7711 11.3191C59.6181 11.5419 59.3976 11.7163 59.1083 11.8422C58.8203 11.9668 58.472 12.0304 58.0619 12.0304C57.6658 12.0304 57.3203 11.9696 57.0296 11.8478C56.7375 11.7274 56.5098 11.5502 56.3455 11.3177C56.1812 11.0852 56.0927 10.8014 56.0801 10.4679H56.9903C57.0029 10.6423 57.0591 10.7876 57.1546 10.9052C57.2514 11.0215 57.3778 11.1073 57.5324 11.1654C57.6884 11.2222 57.8624 11.2512 58.0549 11.2512C58.2558 11.2512 58.4327 11.2208 58.5858 11.1613C58.7374 11.1018 58.8568 11.0187 58.9426 10.9108C59.0297 10.8042 59.0732 10.6783 59.0746 10.5343C59.0732 10.4028 59.0338 10.2935 58.9579 10.2077C58.8807 10.1219 58.774 10.0499 58.6377 9.99177C58.5002 9.93365 58.34 9.88105 58.1574 9.83538L57.576 9.68867C57.156 9.5821 56.8231 9.42017 56.58 9.20288C56.3358 8.98559 56.2149 8.69771 56.2149 8.33647C56.2149 8.0403 56.2963 7.7801 56.4608 7.55727C56.6236 7.33444 56.847 7.16143 57.1293 7.03825C57.413 6.9137 57.7333 6.85278 58.0899 6.85278C58.4524 6.85278 58.7697 6.9137 59.0437 7.03825C59.3175 7.16143 59.5325 7.33306 59.6883 7.55172C59.8442 7.7704 59.9257 8.02091 59.93 8.30463H59.0394Z" fill="black"/>
</g>
<defs>
<clipPath id="clip0_734_542">
<rect width="60" height="12.1827" fill="white"/>
</clipPath>
</defs>
</svg>
