<svg width="54" height="48" viewBox="0 0 54 48" fill="none" xmlns="http://www.w3.org/2000/svg">
<g clip-path="url(#clip0_415_37558)">
<path d="M26.9463 28.7315C29.5832 28.7315 31.7207 26.5939 31.7207 23.957C31.7207 21.3202 29.5832 19.1826 26.9463 19.1826C24.3095 19.1826 22.1719 21.3202 22.1719 23.957C22.1719 26.5939 24.3095 28.7315 26.9463 28.7315Z" fill="#00D8FF"/>
<path d="M26.9469 35.1269C20.2299 35.1269 14.3431 34.3307 9.9272 32.8286C3.8032 30.7308 0 27.3342 0 23.9574C0 20.7076 3.5208 17.5369 9.4218 15.473C14.2216 13.8043 20.4332 12.8867 26.9469 12.8867C33.3278 12.8867 39.4688 13.7874 44.2348 15.4278C50.2826 17.5172 53.8937 20.7076 53.8937 23.9659C53.8937 27.354 49.9579 30.7421 43.6193 32.8484C39.1808 34.3138 33.2572 35.1269 26.9469 35.1269ZM26.9469 15.6311C20.8285 15.6311 14.7694 16.5177 10.3253 18.0649C5.1189 19.886 2.7444 22.3989 2.7444 23.9574C2.7444 25.7023 5.517 28.4156 10.8138 30.2283C14.9473 31.64 20.5264 32.3797 26.9469 32.3797C32.9721 32.3797 38.5879 31.6174 42.7581 30.2339C48.5236 28.3281 51.1465 25.6458 51.1465 23.9574C51.1465 22.3932 48.7043 19.8691 43.3397 18.0282C38.8561 16.4781 33.0342 15.6311 26.9469 15.6311Z" fill="#00D8FF"/>
<path d="M16.1174 47.9987C15.1825 48.0192 14.2589 47.7912 13.4408 47.3381C10.6174 45.7146 9.62917 41.0757 10.7981 34.9347C11.7467 29.9598 14.0591 24.1096 17.3089 18.46C20.5135 12.9119 24.3675 8.0443 28.1537 4.74935C32.9818 0.539607 37.5501 -0.987872 40.3736 0.635604C43.2986 2.32967 44.2812 7.43726 42.9429 13.9707C41.997 18.5644 39.7383 24.1012 36.5845 29.5617C33.219 35.3836 29.588 40.0931 26.0813 43.1565C22.4956 46.3047 18.9154 47.9987 16.1174 47.9987ZM19.6891 19.8237C16.6313 25.1289 14.3754 30.8266 13.4944 35.4373C12.4639 40.8554 13.4549 44.1673 14.8102 44.9466C16.3235 45.8219 20.0618 44.7716 24.2743 41.087C27.5552 38.2127 30.9885 33.746 34.2043 28.1867C37.2141 22.9746 39.3628 17.74 40.2493 13.4145C41.4662 7.48526 40.4526 3.85432 38.9957 3.01011C37.6433 2.23084 34.2354 3.08635 29.9607 6.80763C26.3976 9.91341 22.7497 14.5297 19.6919 19.8208L19.6891 19.8237Z" fill="#00D8FF"/>
<path d="M37.7767 47.9988C35.1255 47.9988 31.7882 46.4177 28.3323 43.4418C24.5066 40.1496 20.5961 35.2284 17.3209 29.5843C14.1163 24.0419 11.8237 18.2765 10.8581 13.3411C9.63269 7.0618 10.5757 2.32972 13.3992 0.70342C16.3327 -0.990641 21.2483 0.70342 26.2317 5.13621C29.7384 8.24199 33.406 12.9684 36.5626 18.4289C39.9507 24.2678 42.2095 29.7622 43.0932 34.3164C44.3497 40.6663 43.3135 45.661 40.3856 47.3438C39.5889 47.7883 38.6889 48.0143 37.7767 47.9988ZM19.7067 28.2065C22.7843 33.5146 26.5846 38.3088 30.1337 41.3609C34.3067 44.958 37.6779 45.7542 39.0331 44.9664C40.5437 44.0968 41.5036 40.3416 40.4166 34.8501C39.5696 30.5895 37.4322 25.3859 34.2051 19.8068C31.1953 14.5919 27.7112 10.1139 24.4275 7.19168C20.0879 3.33769 16.296 2.21113 14.7855 3.08075C13.4302 3.86567 12.4674 7.24814 13.5516 12.816C14.4608 17.4577 16.6574 22.9239 19.6982 28.2065H19.7067Z" fill="#00D8FF"/>
</g>
<defs>
<clipPath id="clip0_415_37558">
<rect width="54" height="48" fill="white"/>
</clipPath>
</defs>
</svg>
